<svg width="19" height="19" viewBox="0 0 19 19" fill="none" xmlns="http://www.w3.org/2000/svg">
<path d="M17.638 9.58946C17.638 8.91272 17.582 8.41887 17.4607 7.90674H9.5752V10.9612H14.2038C14.1105 11.7203 13.6066 12.8635 12.4867 13.6317L12.471 13.7339L14.9643 15.6268L15.137 15.6437C16.7234 14.2079 17.638 12.0953 17.638 9.58946Z" fill="#4285F4"/>
<path d="M9.57418 17.6377C11.8418 17.6377 13.7455 16.906 15.136 15.644L12.4857 13.6319C11.7765 14.1166 10.8246 14.455 9.57418 14.455C7.3532 14.455 5.46816 13.0192 4.7962 11.0347L4.6977 11.0429L2.10519 13.0091L2.07129 13.1015C3.4524 15.7902 6.28931 17.6377 9.57418 17.6377Z" fill="#34A853"/>
<path d="M4.79752 11.0345C4.62022 10.5224 4.51761 9.97364 4.51761 9.40666C4.51761 8.83961 4.62022 8.29091 4.78819 7.77878L4.7835 7.66971L2.15849 5.67188L2.0726 5.71191C1.50338 6.82765 1.17676 8.08059 1.17676 9.40666C1.17676 10.7327 1.50338 11.9856 2.0726 13.1013L4.79752 11.0345Z" fill="#FBBC05"/>
<path d="M9.57422 4.35833C11.1513 4.35833 12.2151 5.02594 12.8217 5.58384L15.192 3.31579C13.7363 1.98972 11.8419 1.17578 9.57422 1.17578C6.28934 1.17578 3.45241 3.02312 2.07129 5.71183L4.78689 7.7787C5.46818 5.79417 7.35323 4.35833 9.57422 4.35833Z" fill="#EB4335"/>
</svg>
